<?xml version="1.0" encoding="UTF-8" standalone="no"?>
<!DOCTYPE svg PUBLIC "-//W3C//DTD SVG 1.1//EN"
 "http://www.w3.org/Graphics/SVG/1.1/DTD/svg11.dtd">
<!-- Generated by graphviz version 3.0.0 (20220226.1711)
 -->
<!-- Title: dependencies Pages: 1 -->
<svg width="3922pt" height="247pt"
 viewBox="0.00 0.00 3922.00 246.80" xmlns="http://www.w3.org/2000/svg" xmlns:xlink="http://www.w3.org/1999/xlink">
<g id="graph0" class="graph" transform="scale(1 1) rotate(0) translate(4 242.8)">
<title>dependencies</title>
<polygon fill="white" stroke="transparent" points="-4,4 -4,-242.8 3918,-242.8 3918,4 -4,4"/>
<text text-anchor="middle" x="1957" y="-8.2" font-family="sans-serif" font-size="14.00">dependencies</text>
<g id="clust1" class="cluster">
<title>cluster_AppModule</title>
<polygon fill="none" stroke="black" stroke-dasharray="1,5" points="8,-32.8 8,-230.8 3906,-230.8 3906,-32.8 8,-32.8"/>
</g>
<g id="clust11" class="cluster">
<title>cluster_AppModule_bootstrap</title>
<polygon fill="none" stroke="black" points="1694,-170.8 1694,-222.8 1818,-222.8 1818,-170.8 1694,-170.8"/>
</g>
<g id="clust12" class="cluster">
<title>cluster_AppModule_providers</title>
<polygon fill="none" stroke="black" points="3112,-40.8 3112,-92.8 3898,-92.8 3898,-40.8 3112,-40.8"/>
</g>
<g id="clust9" class="cluster">
<title>cluster_AppModule_imports</title>
<polygon fill="none" stroke="black" points="1004,-40.8 1004,-92.8 3104,-92.8 3104,-40.8 1004,-40.8"/>
</g>
<g id="clust2" class="cluster">
<title>cluster_AppModule_declarations</title>
<polygon fill="none" stroke="black" points="16,-40.8 16,-92.8 996,-92.8 996,-40.8 16,-40.8"/>
</g>
<!-- AppComponent -->
<g id="node1" class="node">
<title>AppComponent</title>
<polygon fill="#ffffb3" stroke="black" points="987.94,-84.8 882.06,-84.8 882.06,-48.8 987.94,-48.8 987.94,-84.8"/>
<text text-anchor="middle" x="935" y="-62.6" font-family="Times,serif" font-size="14.00">AppComponent</text>
</g>
<!-- AppModule -->
<g id="node7" class="node">
<title>AppModule</title>
<polygon fill="#8dd3c7" stroke="black" points="1797.66,-149.8 1794.66,-153.8 1773.66,-153.8 1770.66,-149.8 1714.34,-149.8 1714.34,-113.8 1797.66,-113.8 1797.66,-149.8"/>
<text text-anchor="middle" x="1756" y="-127.6" font-family="Times,serif" font-size="14.00">AppModule</text>
</g>
<!-- AppComponent&#45;&gt;AppModule -->
<g id="edge1" class="edge">
<title>AppComponent&#45;&gt;AppModule</title>
<path fill="none" stroke="black" d="M935,-84.91C935,-104.14 935,-131.8 935,-131.8 935,-131.8 1704.16,-131.8 1704.16,-131.8"/>
<polygon fill="black" stroke="black" points="1704.16,-135.3 1714.16,-131.8 1704.16,-128.3 1704.16,-135.3"/>
</g>
<!-- LoginComponent -->
<g id="node2" class="node">
<title>LoginComponent</title>
<polygon fill="#ffffb3" stroke="black" points="864.27,-84.8 749.73,-84.8 749.73,-48.8 864.27,-48.8 864.27,-84.8"/>
<text text-anchor="middle" x="807" y="-62.6" font-family="Times,serif" font-size="14.00">LoginComponent</text>
</g>
<!-- LoginComponent&#45;&gt;AppModule -->
<g id="edge2" class="edge">
<title>LoginComponent&#45;&gt;AppModule</title>
<path fill="none" stroke="black" d="M807,-85.02C807,-105.17 807,-134.8 807,-134.8 807,-134.8 1704.31,-134.8 1704.31,-134.8"/>
<polygon fill="black" stroke="black" points="1704.31,-138.3 1714.31,-134.8 1704.31,-131.3 1704.31,-138.3"/>
</g>
<!-- DashboardComponent -->
<g id="node3" class="node">
<title>DashboardComponent</title>
<polygon fill="#ffffb3" stroke="black" points="731.98,-84.8 590.02,-84.8 590.02,-48.8 731.98,-48.8 731.98,-84.8"/>
<text text-anchor="middle" x="661" y="-62.6" font-family="Times,serif" font-size="14.00">DashboardComponent</text>
</g>
<!-- DashboardComponent&#45;&gt;AppModule -->
<g id="edge3" class="edge">
<title>DashboardComponent&#45;&gt;AppModule</title>
<path fill="none" stroke="black" d="M661,-85.08C661,-106.12 661,-137.8 661,-137.8 661,-137.8 1704.08,-137.8 1704.08,-137.8"/>
<polygon fill="black" stroke="black" points="1704.08,-141.3 1714.08,-137.8 1704.08,-134.3 1704.08,-141.3"/>
</g>
<!-- UserListComponent -->
<g id="node4" class="node">
<title>UserListComponent</title>
<polygon fill="#ffffb3" stroke="black" points="571.55,-84.8 442.45,-84.8 442.45,-48.8 571.55,-48.8 571.55,-84.8"/>
<text text-anchor="middle" x="507" y="-62.6" font-family="Times,serif" font-size="14.00">UserListComponent</text>
</g>
<!-- UserListComponent&#45;&gt;AppModule -->
<g id="edge4" class="edge">
<title>UserListComponent&#45;&gt;AppModule</title>
<path fill="none" stroke="black" d="M507,-85.09C507,-107.01 507,-140.8 507,-140.8 507,-140.8 1704.09,-140.8 1704.09,-140.8"/>
<polygon fill="black" stroke="black" points="1704.09,-144.3 1714.09,-140.8 1704.09,-137.3 1704.09,-144.3"/>
</g>
<!-- AddEditUserDialogeComponent -->
<g id="node5" class="node">
<title>AddEditUserDialogeComponent</title>
<polygon fill="#ffffb3" stroke="black" points="423.52,-84.8 224.48,-84.8 224.48,-48.8 423.52,-48.8 423.52,-84.8"/>
<text text-anchor="middle" x="324" y="-62.6" font-family="Times,serif" font-size="14.00">AddEditUserDialogeComponent</text>
</g>
<!-- AddEditUserDialogeComponent&#45;&gt;AppModule -->
<g id="edge5" class="edge">
<title>AddEditUserDialogeComponent&#45;&gt;AppModule</title>
<path fill="none" stroke="black" d="M324,-85.05C324,-107.82 324,-143.8 324,-143.8 324,-143.8 1704.3,-143.8 1704.3,-143.8"/>
<polygon fill="black" stroke="black" points="1704.3,-147.3 1714.3,-143.8 1704.3,-140.3 1704.3,-147.3"/>
</g>
<!-- DeleteUserDialogComponent -->
<g id="node6" class="node">
<title>DeleteUserDialogComponent</title>
<polygon fill="#ffffb3" stroke="black" points="206.4,-84.8 23.6,-84.8 23.6,-48.8 206.4,-48.8 206.4,-84.8"/>
<text text-anchor="middle" x="115" y="-62.6" font-family="Times,serif" font-size="14.00">DeleteUserDialogComponent</text>
</g>
<!-- DeleteUserDialogComponent&#45;&gt;AppModule -->
<g id="edge6" class="edge">
<title>DeleteUserDialogComponent&#45;&gt;AppModule</title>
<path fill="none" stroke="black" d="M115,-84.95C115,-108.56 115,-146.8 115,-146.8 115,-146.8 1704.2,-146.8 1704.2,-146.8"/>
<polygon fill="black" stroke="black" points="1704.2,-150.3 1714.2,-146.8 1704.2,-143.3 1704.2,-150.3"/>
</g>
<!-- AppComponent  -->
<g id="node23" class="node">
<title>AppComponent </title>
<polygon fill="#80b1d3" stroke="black" points="1810.44,-214.8 1701.56,-214.8 1701.56,-178.8 1810.44,-178.8 1810.44,-214.8"/>
<text text-anchor="middle" x="1756" y="-192.6" font-family="Times,serif" font-size="14.00">AppComponent </text>
</g>
<!-- AppModule&#45;&gt;AppComponent  -->
<g id="edge22" class="edge">
<title>AppModule&#45;&gt;AppComponent </title>
<path fill="none" stroke="black" stroke-dasharray="1,5" d="M1756,-149.91C1756,-149.91 1756,-168.79 1756,-168.79"/>
<polygon fill="black" stroke="black" points="1752.5,-168.79 1756,-178.79 1759.5,-168.79 1752.5,-168.79"/>
</g>
<!-- BrowserModule -->
<g id="node8" class="node">
<title>BrowserModule</title>
<polygon fill="#8dd3c7" stroke="black" points="3096.49,-84.8 3093.49,-88.8 3072.49,-88.8 3069.49,-84.8 2989.51,-84.8 2989.51,-48.8 3096.49,-48.8 3096.49,-84.8"/>
<text text-anchor="middle" x="3043" y="-62.6" font-family="Times,serif" font-size="14.00">BrowserModule</text>
</g>
<!-- BrowserModule&#45;&gt;AppModule -->
<g id="edge7" class="edge">
<title>BrowserModule&#45;&gt;AppModule</title>
<path fill="none" stroke="black" d="M3043,-85.09C3043,-107.01 3043,-140.8 3043,-140.8 3043,-140.8 1807.73,-140.8 1807.73,-140.8"/>
<polygon fill="black" stroke="black" points="1807.73,-137.3 1797.73,-140.8 1807.73,-144.3 1807.73,-137.3"/>
</g>
<!-- HttpClientModule -->
<g id="node9" class="node">
<title>HttpClientModule</title>
<polygon fill="#8dd3c7" stroke="black" points="2971.16,-84.8 2968.16,-88.8 2947.16,-88.8 2944.16,-84.8 2852.84,-84.8 2852.84,-48.8 2971.16,-48.8 2971.16,-84.8"/>
<text text-anchor="middle" x="2912" y="-62.6" font-family="Times,serif" font-size="14.00">HttpClientModule</text>
</g>
<!-- HttpClientModule&#45;&gt;AppModule -->
<g id="edge8" class="edge">
<title>HttpClientModule&#45;&gt;AppModule</title>
<path fill="none" stroke="black" d="M2912,-85.08C2912,-106.12 2912,-137.8 2912,-137.8 2912,-137.8 1807.83,-137.8 1807.83,-137.8"/>
<polygon fill="black" stroke="black" points="1807.83,-134.3 1797.83,-137.8 1807.83,-141.3 1807.83,-134.3"/>
</g>
<!-- AppRoutingModule -->
<g id="node10" class="node">
<title>AppRoutingModule</title>
<polygon fill="#8dd3c7" stroke="black" points="2834.28,-84.8 2831.28,-88.8 2810.28,-88.8 2807.28,-84.8 2705.72,-84.8 2705.72,-48.8 2834.28,-48.8 2834.28,-84.8"/>
<text text-anchor="middle" x="2770" y="-62.6" font-family="Times,serif" font-size="14.00">AppRoutingModule</text>
</g>
<!-- AppRoutingModule&#45;&gt;AppModule -->
<g id="edge9" class="edge">
<title>AppRoutingModule&#45;&gt;AppModule</title>
<path fill="none" stroke="black" d="M2770,-85.02C2770,-105.17 2770,-134.8 2770,-134.8 2770,-134.8 1807.96,-134.8 1807.96,-134.8"/>
<polygon fill="black" stroke="black" points="1807.96,-131.3 1797.96,-134.8 1807.96,-138.3 1807.96,-131.3"/>
</g>
<!-- BrowserAnimationsModule -->
<g id="node11" class="node">
<title>BrowserAnimationsModule</title>
<polygon fill="#8dd3c7" stroke="black" points="2687.32,-84.8 2684.32,-88.8 2663.32,-88.8 2660.32,-84.8 2514.68,-84.8 2514.68,-48.8 2687.32,-48.8 2687.32,-84.8"/>
<text text-anchor="middle" x="2601" y="-62.6" font-family="Times,serif" font-size="14.00">BrowserAnimationsModule</text>
</g>
<!-- BrowserAnimationsModule&#45;&gt;AppModule -->
<g id="edge10" class="edge">
<title>BrowserAnimationsModule&#45;&gt;AppModule</title>
<path fill="none" stroke="black" d="M2601,-84.91C2601,-104.14 2601,-131.8 2601,-131.8 2601,-131.8 1807.9,-131.8 1807.9,-131.8"/>
<polygon fill="black" stroke="black" points="1807.9,-128.3 1797.9,-131.8 1807.9,-135.3 1807.9,-128.3"/>
</g>
<!-- MatToolbarModule -->
<g id="node12" class="node">
<title>MatToolbarModule</title>
<polygon fill="#8dd3c7" stroke="black" points="2497.42,-84.8 2494.42,-88.8 2473.42,-88.8 2470.42,-84.8 2370.58,-84.8 2370.58,-48.8 2497.42,-48.8 2497.42,-84.8"/>
<text text-anchor="middle" x="2434" y="-62.6" font-family="Times,serif" font-size="14.00">MatToolbarModule</text>
</g>
<!-- MatToolbarModule&#45;&gt;AppModule -->
<g id="edge11" class="edge">
<title>MatToolbarModule&#45;&gt;AppModule</title>
<path fill="none" stroke="black" d="M2434,-85.07C2434,-103.36 2434,-128.8 2434,-128.8 2434,-128.8 1807.9,-128.8 1807.9,-128.8"/>
<polygon fill="black" stroke="black" points="1807.9,-125.3 1797.9,-128.8 1807.9,-132.3 1807.9,-125.3"/>
</g>
<!-- MatIconModule -->
<g id="node13" class="node">
<title>MatIconModule</title>
<polygon fill="#8dd3c7" stroke="black" points="2352.48,-84.8 2349.48,-88.8 2328.48,-88.8 2325.48,-84.8 2245.52,-84.8 2245.52,-48.8 2352.48,-48.8 2352.48,-84.8"/>
<text text-anchor="middle" x="2299" y="-62.6" font-family="Times,serif" font-size="14.00">MatIconModule</text>
</g>
<!-- MatIconModule&#45;&gt;AppModule -->
<g id="edge12" class="edge">
<title>MatIconModule&#45;&gt;AppModule</title>
<path fill="none" stroke="black" d="M2299,-84.82C2299,-102.17 2299,-125.8 2299,-125.8 2299,-125.8 1807.71,-125.8 1807.71,-125.8"/>
<polygon fill="black" stroke="black" points="1807.71,-122.3 1797.71,-125.8 1807.71,-129.3 1807.71,-122.3"/>
</g>
<!-- MatCardModule -->
<g id="node14" class="node">
<title>MatCardModule</title>
<polygon fill="#8dd3c7" stroke="black" points="2227.82,-84.8 2224.82,-88.8 2203.82,-88.8 2200.82,-84.8 2118.18,-84.8 2118.18,-48.8 2227.82,-48.8 2227.82,-84.8"/>
<text text-anchor="middle" x="2173" y="-62.6" font-family="Times,serif" font-size="14.00">MatCardModule</text>
</g>
<!-- MatCardModule&#45;&gt;AppModule -->
<g id="edge13" class="edge">
<title>MatCardModule&#45;&gt;AppModule</title>
<path fill="none" stroke="black" d="M2173,-84.83C2173,-101.2 2173,-122.8 2173,-122.8 2173,-122.8 1807.89,-122.8 1807.89,-122.8"/>
<polygon fill="black" stroke="black" points="1807.89,-119.3 1797.89,-122.8 1807.89,-126.3 1807.89,-119.3"/>
</g>
<!-- MatFormFieldModule -->
<g id="node15" class="node">
<title>MatFormFieldModule</title>
<polygon fill="#8dd3c7" stroke="black" points="2100.72,-84.8 2097.72,-88.8 2076.72,-88.8 2073.72,-84.8 1959.28,-84.8 1959.28,-48.8 2100.72,-48.8 2100.72,-84.8"/>
<text text-anchor="middle" x="2030" y="-62.6" font-family="Times,serif" font-size="14.00">MatFormFieldModule</text>
</g>
<!-- MatFormFieldModule&#45;&gt;AppModule -->
<g id="edge14" class="edge">
<title>MatFormFieldModule&#45;&gt;AppModule</title>
<path fill="none" stroke="black" d="M2030,-85.04C2030,-100.37 2030,-119.8 2030,-119.8 2030,-119.8 1807.91,-119.8 1807.91,-119.8"/>
<polygon fill="black" stroke="black" points="1807.91,-116.3 1797.91,-119.8 1807.91,-123.3 1807.91,-116.3"/>
</g>
<!-- FormsModule -->
<g id="node16" class="node">
<title>FormsModule</title>
<polygon fill="#8dd3c7" stroke="black" points="1941.84,-84.8 1938.84,-88.8 1917.84,-88.8 1914.84,-84.8 1846.16,-84.8 1846.16,-48.8 1941.84,-48.8 1941.84,-84.8"/>
<text text-anchor="middle" x="1894" y="-62.6" font-family="Times,serif" font-size="14.00">FormsModule</text>
</g>
<!-- FormsModule&#45;&gt;AppModule -->
<g id="edge15" class="edge">
<title>FormsModule&#45;&gt;AppModule</title>
<path fill="none" stroke="black" d="M1894,-84.85C1894,-99.17 1894,-116.8 1894,-116.8 1894,-116.8 1807.78,-116.8 1807.78,-116.8"/>
<polygon fill="black" stroke="black" points="1807.78,-113.3 1797.78,-116.8 1807.78,-120.3 1807.78,-113.3"/>
</g>
<!-- ReactiveFormsModule -->
<g id="node17" class="node">
<title>ReactiveFormsModule</title>
<polygon fill="#8dd3c7" stroke="black" points="1828.31,-84.8 1825.31,-88.8 1804.31,-88.8 1801.31,-84.8 1683.69,-84.8 1683.69,-48.8 1828.31,-48.8 1828.31,-84.8"/>
<text text-anchor="middle" x="1756" y="-62.6" font-family="Times,serif" font-size="14.00">ReactiveFormsModule</text>
</g>
<!-- ReactiveFormsModule&#45;&gt;AppModule -->
<g id="edge16" class="edge">
<title>ReactiveFormsModule&#45;&gt;AppModule</title>
<path fill="none" stroke="black" d="M1756,-84.91C1756,-84.91 1756,-103.79 1756,-103.79"/>
<polygon fill="black" stroke="black" points="1752.5,-103.79 1756,-113.79 1759.5,-103.79 1752.5,-103.79"/>
</g>
<!-- MatButtonModule -->
<g id="node18" class="node">
<title>MatButtonModule</title>
<polygon fill="#8dd3c7" stroke="black" points="1666.22,-84.8 1663.22,-88.8 1642.22,-88.8 1639.22,-84.8 1545.78,-84.8 1545.78,-48.8 1666.22,-48.8 1666.22,-84.8"/>
<text text-anchor="middle" x="1606" y="-62.6" font-family="Times,serif" font-size="14.00">MatButtonModule</text>
</g>
<!-- MatButtonModule&#45;&gt;AppModule -->
<g id="edge17" class="edge">
<title>MatButtonModule&#45;&gt;AppModule</title>
<path fill="none" stroke="black" d="M1606,-84.85C1606,-99.17 1606,-116.8 1606,-116.8 1606,-116.8 1704.22,-116.8 1704.22,-116.8"/>
<polygon fill="black" stroke="black" points="1704.22,-120.3 1714.22,-116.8 1704.22,-113.3 1704.22,-120.3"/>
</g>
<!-- MatInputModule -->
<g id="node19" class="node">
<title>MatInputModule</title>
<polygon fill="#8dd3c7" stroke="black" points="1527.66,-84.8 1524.66,-88.8 1503.66,-88.8 1500.66,-84.8 1416.34,-84.8 1416.34,-48.8 1527.66,-48.8 1527.66,-84.8"/>
<text text-anchor="middle" x="1472" y="-62.6" font-family="Times,serif" font-size="14.00">MatInputModule</text>
</g>
<!-- MatInputModule&#45;&gt;AppModule -->
<g id="edge18" class="edge">
<title>MatInputModule&#45;&gt;AppModule</title>
<path fill="none" stroke="black" d="M1472,-85.04C1472,-100.37 1472,-119.8 1472,-119.8 1472,-119.8 1704.09,-119.8 1704.09,-119.8"/>
<polygon fill="black" stroke="black" points="1704.09,-123.3 1714.09,-119.8 1704.09,-116.3 1704.09,-123.3"/>
</g>
<!-- MatChipsModule -->
<g id="node20" class="node">
<title>MatChipsModule</title>
<polygon fill="#8dd3c7" stroke="black" points="1398.28,-84.8 1395.28,-88.8 1374.28,-88.8 1371.28,-84.8 1283.72,-84.8 1283.72,-48.8 1398.28,-48.8 1398.28,-84.8"/>
<text text-anchor="middle" x="1341" y="-62.6" font-family="Times,serif" font-size="14.00">MatChipsModule</text>
</g>
<!-- MatChipsModule&#45;&gt;AppModule -->
<g id="edge19" class="edge">
<title>MatChipsModule&#45;&gt;AppModule</title>
<path fill="none" stroke="black" d="M1341,-84.83C1341,-101.2 1341,-122.8 1341,-122.8 1341,-122.8 1704.31,-122.8 1704.31,-122.8"/>
<polygon fill="black" stroke="black" points="1704.31,-126.3 1714.31,-122.8 1704.31,-119.3 1704.31,-126.3"/>
</g>
<!-- MatDialogModule -->
<g id="node21" class="node">
<title>MatDialogModule</title>
<polygon fill="#8dd3c7" stroke="black" points="1266.21,-84.8 1263.21,-88.8 1242.21,-88.8 1239.21,-84.8 1145.79,-84.8 1145.79,-48.8 1266.21,-48.8 1266.21,-84.8"/>
<text text-anchor="middle" x="1206" y="-62.6" font-family="Times,serif" font-size="14.00">MatDialogModule</text>
</g>
<!-- MatDialogModule&#45;&gt;AppModule -->
<g id="edge20" class="edge">
<title>MatDialogModule&#45;&gt;AppModule</title>
<path fill="none" stroke="black" d="M1206,-84.82C1206,-102.17 1206,-125.8 1206,-125.8 1206,-125.8 1704.21,-125.8 1704.21,-125.8"/>
<polygon fill="black" stroke="black" points="1704.21,-129.3 1714.21,-125.8 1704.21,-122.3 1704.21,-129.3"/>
</g>
<!-- MatSelectModule -->
<g id="node22" class="node">
<title>MatSelectModule</title>
<polygon fill="#8dd3c7" stroke="black" points="1128.31,-84.8 1125.31,-88.8 1104.31,-88.8 1101.31,-84.8 1011.69,-84.8 1011.69,-48.8 1128.31,-48.8 1128.31,-84.8"/>
<text text-anchor="middle" x="1070" y="-62.6" font-family="Times,serif" font-size="14.00">MatSelectModule</text>
</g>
<!-- MatSelectModule&#45;&gt;AppModule -->
<g id="edge21" class="edge">
<title>MatSelectModule&#45;&gt;AppModule</title>
<path fill="none" stroke="black" d="M1070,-85.07C1070,-103.36 1070,-128.8 1070,-128.8 1070,-128.8 1704.12,-128.8 1704.12,-128.8"/>
<polygon fill="black" stroke="black" points="1704.12,-132.3 1714.12,-128.8 1704.12,-125.3 1704.12,-132.3"/>
</g>
<!-- HttpClient -->
<g id="node24" class="node">
<title>HttpClient</title>
<ellipse fill="#fdb462" stroke="black" cx="3838" cy="-66.8" rx="51.62" ry="18"/>
<text text-anchor="middle" x="3838" y="-62.6" font-family="Times,serif" font-size="14.00">HttpClient</text>
</g>
<!-- HttpClient&#45;&gt;AppModule -->
<g id="edge23" class="edge">
<title>HttpClient&#45;&gt;AppModule</title>
<path fill="none" stroke="black" d="M3838,-84.95C3838,-108.56 3838,-146.8 3838,-146.8 3838,-146.8 1808.06,-146.8 1808.06,-146.8"/>
<polygon fill="black" stroke="black" points="1808.06,-143.3 1798.06,-146.8 1808.06,-150.3 1808.06,-143.3"/>
</g>
<!-- { provide: HTTP_INTERCEPTORS, useClass: AuthInterceptorService, multi: &#160;} -->
<g id="node25" class="node">
<title>{ provide: HTTP_INTERCEPTORS, useClass: AuthInterceptorService, multi: &#160;}</title>
<ellipse fill="#fdb462" stroke="black" cx="3444" cy="-66.8" rx="324.39" ry="18"/>
<text text-anchor="middle" x="3444" y="-62.6" font-family="Times,serif" font-size="14.00">{ provide: HTTP_INTERCEPTORS, useClass: AuthInterceptorService, multi: &#160;}</text>
</g>
<!-- { provide: HTTP_INTERCEPTORS, useClass: AuthInterceptorService, multi: &#160;}&#45;&gt;AppModule -->
<g id="edge24" class="edge">
<title>{ provide: HTTP_INTERCEPTORS, useClass: AuthInterceptorService, multi: &#160;}&#45;&gt;AppModule</title>
<path fill="none" stroke="black" d="M3444,-85.05C3444,-107.82 3444,-143.8 3444,-143.8 3444,-143.8 1807.73,-143.8 1807.73,-143.8"/>
<polygon fill="black" stroke="black" points="1807.73,-140.3 1797.73,-143.8 1807.73,-147.3 1807.73,-140.3"/>
</g>
</g>
</svg>
