<?xml version="1.0" encoding="UTF-8" standalone="no"?>
<!DOCTYPE svg PUBLIC "-//W3C//DTD SVG 1.1//EN"
 "http://www.w3.org/Graphics/SVG/1.1/DTD/svg11.dtd">
<!-- Generated by graphviz version 3.0.0 (20220226.1711)
 -->
<!-- Title: dependencies Pages: 1 -->
<svg width="3922pt" height="247pt"
 viewBox="0.00 0.00 3922.00 246.80" xmlns="http://www.w3.org/2000/svg" xmlns:xlink="http://www.w3.org/1999/xlink">
<g id="graph0" class="graph" transform="scale(1 1) rotate(0) translate(4 242.8)">
<title>dependencies</title>
<polygon fill="white" stroke="transparent" points="-4,4 -4,-242.8 3918,-242.8 3918,4 -4,4"/>
<text text-anchor="middle" x="1957" y="-8.2" font-family="sans-serif" font-size="14.00">dependencies</text>
<g id="clust1" class="cluster">
<title>cluster_AppModule</title>
<polygon fill="none" stroke="black" stroke-dasharray="1,5" points="8,-32.8 8,-230.8 3906,-230.8 3906,-32.8 8,-32.8"/>
</g>
<g id="clust2" class="cluster">
<title>cluster_AppModule_declarations</title>
<polygon fill="none" stroke="black" points="2918,-40.8 2918,-92.8 3898,-92.8 3898,-40.8 2918,-40.8"/>
</g>
<g id="clust9" class="cluster">
<title>cluster_AppModule_imports</title>
<polygon fill="none" stroke="black" points="810,-40.8 810,-92.8 2910,-92.8 2910,-40.8 810,-40.8"/>
</g>
<g id="clust11" class="cluster">
<title>cluster_AppModule_bootstrap</title>
<polygon fill="none" stroke="black" points="2043,-170.8 2043,-222.8 2167,-222.8 2167,-170.8 2043,-170.8"/>
</g>
<g id="clust12" class="cluster">
<title>cluster_AppModule_providers</title>
<polygon fill="none" stroke="black" points="16,-40.8 16,-92.8 802,-92.8 802,-40.8 16,-40.8"/>
</g>
<!-- AppComponent -->
<g id="node1" class="node">
<title>AppComponent</title>
<polygon fill="#ffffb3" stroke="black" points="3889.94,-84.8 3784.06,-84.8 3784.06,-48.8 3889.94,-48.8 3889.94,-84.8"/>
<text text-anchor="middle" x="3837" y="-62.6" font-family="Times,serif" font-size="14.00">AppComponent</text>
</g>
<!-- AppModule -->
<g id="node7" class="node">
<title>AppModule</title>
<polygon fill="#8dd3c7" stroke="black" points="2146.66,-149.8 2143.66,-153.8 2122.66,-153.8 2119.66,-149.8 2063.34,-149.8 2063.34,-113.8 2146.66,-113.8 2146.66,-149.8"/>
<text text-anchor="middle" x="2105" y="-127.6" font-family="Times,serif" font-size="14.00">AppModule</text>
</g>
<!-- AppComponent&#45;&gt;AppModule -->
<g id="edge1" class="edge">
<title>AppComponent&#45;&gt;AppModule</title>
<path fill="none" stroke="black" d="M3837,-84.95C3837,-108.56 3837,-146.8 3837,-146.8 3837,-146.8 2156.96,-146.8 2156.96,-146.8"/>
<polygon fill="black" stroke="black" points="2156.96,-143.3 2146.96,-146.8 2156.96,-150.3 2156.96,-143.3"/>
</g>
<!-- LoginComponent -->
<g id="node2" class="node">
<title>LoginComponent</title>
<polygon fill="#ffffb3" stroke="black" points="3766.27,-84.8 3651.73,-84.8 3651.73,-48.8 3766.27,-48.8 3766.27,-84.8"/>
<text text-anchor="middle" x="3709" y="-62.6" font-family="Times,serif" font-size="14.00">LoginComponent</text>
</g>
<!-- LoginComponent&#45;&gt;AppModule -->
<g id="edge2" class="edge">
<title>LoginComponent&#45;&gt;AppModule</title>
<path fill="none" stroke="black" d="M3709,-85.05C3709,-107.82 3709,-143.8 3709,-143.8 3709,-143.8 2156.67,-143.8 2156.67,-143.8"/>
<polygon fill="black" stroke="black" points="2156.67,-140.3 2146.67,-143.8 2156.67,-147.3 2156.67,-140.3"/>
</g>
<!-- DashboardComponent -->
<g id="node3" class="node">
<title>DashboardComponent</title>
<polygon fill="#ffffb3" stroke="black" points="3633.98,-84.8 3492.02,-84.8 3492.02,-48.8 3633.98,-48.8 3633.98,-84.8"/>
<text text-anchor="middle" x="3563" y="-62.6" font-family="Times,serif" font-size="14.00">DashboardComponent</text>
</g>
<!-- DashboardComponent&#45;&gt;AppModule -->
<g id="edge3" class="edge">
<title>DashboardComponent&#45;&gt;AppModule</title>
<path fill="none" stroke="black" d="M3563,-85.09C3563,-107.01 3563,-140.8 3563,-140.8 3563,-140.8 2156.67,-140.8 2156.67,-140.8"/>
<polygon fill="black" stroke="black" points="2156.67,-137.3 2146.67,-140.8 2156.67,-144.3 2156.67,-137.3"/>
</g>
<!-- UserListComponent -->
<g id="node4" class="node">
<title>UserListComponent</title>
<polygon fill="#ffffb3" stroke="black" points="3473.55,-84.8 3344.45,-84.8 3344.45,-48.8 3473.55,-48.8 3473.55,-84.8"/>
<text text-anchor="middle" x="3409" y="-62.6" font-family="Times,serif" font-size="14.00">UserListComponent</text>
</g>
<!-- UserListComponent&#45;&gt;AppModule -->
<g id="edge4" class="edge">
<title>UserListComponent&#45;&gt;AppModule</title>
<path fill="none" stroke="black" d="M3409,-85.08C3409,-106.12 3409,-137.8 3409,-137.8 3409,-137.8 2156.91,-137.8 2156.91,-137.8"/>
<polygon fill="black" stroke="black" points="2156.91,-134.3 2146.91,-137.8 2156.91,-141.3 2156.91,-134.3"/>
</g>
<!-- AddEditUserDialogeComponent -->
<g id="node5" class="node">
<title>AddEditUserDialogeComponent</title>
<polygon fill="#ffffb3" stroke="black" points="3325.52,-84.8 3126.48,-84.8 3126.48,-48.8 3325.52,-48.8 3325.52,-84.8"/>
<text text-anchor="middle" x="3226" y="-62.6" font-family="Times,serif" font-size="14.00">AddEditUserDialogeComponent</text>
</g>
<!-- AddEditUserDialogeComponent&#45;&gt;AppModule -->
<g id="edge5" class="edge">
<title>AddEditUserDialogeComponent&#45;&gt;AppModule</title>
<path fill="none" stroke="black" d="M3226,-85.02C3226,-105.17 3226,-134.8 3226,-134.8 3226,-134.8 2156.9,-134.8 2156.9,-134.8"/>
<polygon fill="black" stroke="black" points="2156.9,-131.3 2146.9,-134.8 2156.9,-138.3 2156.9,-131.3"/>
</g>
<!-- DeleteUserDialogComponent -->
<g id="node6" class="node">
<title>DeleteUserDialogComponent</title>
<polygon fill="#ffffb3" stroke="black" points="3108.4,-84.8 2925.6,-84.8 2925.6,-48.8 3108.4,-48.8 3108.4,-84.8"/>
<text text-anchor="middle" x="3017" y="-62.6" font-family="Times,serif" font-size="14.00">DeleteUserDialogComponent</text>
</g>
<!-- DeleteUserDialogComponent&#45;&gt;AppModule -->
<g id="edge6" class="edge">
<title>DeleteUserDialogComponent&#45;&gt;AppModule</title>
<path fill="none" stroke="black" d="M3017,-84.91C3017,-104.14 3017,-131.8 3017,-131.8 3017,-131.8 2156.86,-131.8 2156.86,-131.8"/>
<polygon fill="black" stroke="black" points="2156.86,-128.3 2146.86,-131.8 2156.86,-135.3 2156.86,-128.3"/>
</g>
<!-- AppComponent  -->
<g id="node23" class="node">
<title>AppComponent </title>
<polygon fill="#80b1d3" stroke="black" points="2159.44,-214.8 2050.56,-214.8 2050.56,-178.8 2159.44,-178.8 2159.44,-214.8"/>
<text text-anchor="middle" x="2105" y="-192.6" font-family="Times,serif" font-size="14.00">AppComponent </text>
</g>
<!-- AppModule&#45;&gt;AppComponent  -->
<g id="edge22" class="edge">
<title>AppModule&#45;&gt;AppComponent </title>
<path fill="none" stroke="black" stroke-dasharray="1,5" d="M2105,-149.91C2105,-149.91 2105,-168.79 2105,-168.79"/>
<polygon fill="black" stroke="black" points="2101.5,-168.79 2105,-178.79 2108.5,-168.79 2101.5,-168.79"/>
</g>
<!-- BrowserModule -->
<g id="node8" class="node">
<title>BrowserModule</title>
<polygon fill="#8dd3c7" stroke="black" points="2902.49,-84.8 2899.49,-88.8 2878.49,-88.8 2875.49,-84.8 2795.51,-84.8 2795.51,-48.8 2902.49,-48.8 2902.49,-84.8"/>
<text text-anchor="middle" x="2849" y="-62.6" font-family="Times,serif" font-size="14.00">BrowserModule</text>
</g>
<!-- BrowserModule&#45;&gt;AppModule -->
<g id="edge7" class="edge">
<title>BrowserModule&#45;&gt;AppModule</title>
<path fill="none" stroke="black" d="M2849,-85.07C2849,-103.36 2849,-128.8 2849,-128.8 2849,-128.8 2156.86,-128.8 2156.86,-128.8"/>
<polygon fill="black" stroke="black" points="2156.86,-125.3 2146.86,-128.8 2156.86,-132.3 2156.86,-125.3"/>
</g>
<!-- HttpClientModule -->
<g id="node9" class="node">
<title>HttpClientModule</title>
<polygon fill="#8dd3c7" stroke="black" points="2777.16,-84.8 2774.16,-88.8 2753.16,-88.8 2750.16,-84.8 2658.84,-84.8 2658.84,-48.8 2777.16,-48.8 2777.16,-84.8"/>
<text text-anchor="middle" x="2718" y="-62.6" font-family="Times,serif" font-size="14.00">HttpClientModule</text>
</g>
<!-- HttpClientModule&#45;&gt;AppModule -->
<g id="edge8" class="edge">
<title>HttpClientModule&#45;&gt;AppModule</title>
<path fill="none" stroke="black" d="M2718,-84.82C2718,-102.17 2718,-125.8 2718,-125.8 2718,-125.8 2157.13,-125.8 2157.13,-125.8"/>
<polygon fill="black" stroke="black" points="2157.13,-122.3 2147.13,-125.8 2157.13,-129.3 2157.13,-122.3"/>
</g>
<!-- AppRoutingModule -->
<g id="node10" class="node">
<title>AppRoutingModule</title>
<polygon fill="#8dd3c7" stroke="black" points="2640.28,-84.8 2637.28,-88.8 2616.28,-88.8 2613.28,-84.8 2511.72,-84.8 2511.72,-48.8 2640.28,-48.8 2640.28,-84.8"/>
<text text-anchor="middle" x="2576" y="-62.6" font-family="Times,serif" font-size="14.00">AppRoutingModule</text>
</g>
<!-- AppRoutingModule&#45;&gt;AppModule -->
<g id="edge9" class="edge">
<title>AppRoutingModule&#45;&gt;AppModule</title>
<path fill="none" stroke="black" d="M2576,-84.83C2576,-101.2 2576,-122.8 2576,-122.8 2576,-122.8 2156.8,-122.8 2156.8,-122.8"/>
<polygon fill="black" stroke="black" points="2156.8,-119.3 2146.8,-122.8 2156.8,-126.3 2156.8,-119.3"/>
</g>
<!-- BrowserAnimationsModule -->
<g id="node11" class="node">
<title>BrowserAnimationsModule</title>
<polygon fill="#8dd3c7" stroke="black" points="2493.32,-84.8 2490.32,-88.8 2469.32,-88.8 2466.32,-84.8 2320.68,-84.8 2320.68,-48.8 2493.32,-48.8 2493.32,-84.8"/>
<text text-anchor="middle" x="2407" y="-62.6" font-family="Times,serif" font-size="14.00">BrowserAnimationsModule</text>
</g>
<!-- BrowserAnimationsModule&#45;&gt;AppModule -->
<g id="edge10" class="edge">
<title>BrowserAnimationsModule&#45;&gt;AppModule</title>
<path fill="none" stroke="black" d="M2407,-85.04C2407,-100.37 2407,-119.8 2407,-119.8 2407,-119.8 2156.67,-119.8 2156.67,-119.8"/>
<polygon fill="black" stroke="black" points="2156.67,-116.3 2146.67,-119.8 2156.67,-123.3 2156.67,-116.3"/>
</g>
<!-- MatToolbarModule -->
<g id="node12" class="node">
<title>MatToolbarModule</title>
<polygon fill="#8dd3c7" stroke="black" points="2303.42,-84.8 2300.42,-88.8 2279.42,-88.8 2276.42,-84.8 2176.58,-84.8 2176.58,-48.8 2303.42,-48.8 2303.42,-84.8"/>
<text text-anchor="middle" x="2240" y="-62.6" font-family="Times,serif" font-size="14.00">MatToolbarModule</text>
</g>
<!-- MatToolbarModule&#45;&gt;AppModule -->
<g id="edge11" class="edge">
<title>MatToolbarModule&#45;&gt;AppModule</title>
<path fill="none" stroke="black" d="M2240,-84.85C2240,-99.17 2240,-116.8 2240,-116.8 2240,-116.8 2156.97,-116.8 2156.97,-116.8"/>
<polygon fill="black" stroke="black" points="2156.97,-113.3 2146.97,-116.8 2156.97,-120.3 2156.97,-113.3"/>
</g>
<!-- MatIconModule -->
<g id="node13" class="node">
<title>MatIconModule</title>
<polygon fill="#8dd3c7" stroke="black" points="2158.48,-84.8 2155.48,-88.8 2134.48,-88.8 2131.48,-84.8 2051.52,-84.8 2051.52,-48.8 2158.48,-48.8 2158.48,-84.8"/>
<text text-anchor="middle" x="2105" y="-62.6" font-family="Times,serif" font-size="14.00">MatIconModule</text>
</g>
<!-- MatIconModule&#45;&gt;AppModule -->
<g id="edge12" class="edge">
<title>MatIconModule&#45;&gt;AppModule</title>
<path fill="none" stroke="black" d="M2105,-84.91C2105,-84.91 2105,-103.79 2105,-103.79"/>
<polygon fill="black" stroke="black" points="2101.5,-103.79 2105,-113.79 2108.5,-103.79 2101.5,-103.79"/>
</g>
<!-- MatCardModule -->
<g id="node14" class="node">
<title>MatCardModule</title>
<polygon fill="#8dd3c7" stroke="black" points="2033.82,-84.8 2030.82,-88.8 2009.82,-88.8 2006.82,-84.8 1924.18,-84.8 1924.18,-48.8 2033.82,-48.8 2033.82,-84.8"/>
<text text-anchor="middle" x="1979" y="-62.6" font-family="Times,serif" font-size="14.00">MatCardModule</text>
</g>
<!-- MatCardModule&#45;&gt;AppModule -->
<g id="edge13" class="edge">
<title>MatCardModule&#45;&gt;AppModule</title>
<path fill="none" stroke="black" d="M1979,-84.85C1979,-99.17 1979,-116.8 1979,-116.8 1979,-116.8 2053.04,-116.8 2053.04,-116.8"/>
<polygon fill="black" stroke="black" points="2053.04,-120.3 2063.04,-116.8 2053.04,-113.3 2053.04,-120.3"/>
</g>
<!-- MatFormFieldModule -->
<g id="node15" class="node">
<title>MatFormFieldModule</title>
<polygon fill="#8dd3c7" stroke="black" points="1906.72,-84.8 1903.72,-88.8 1882.72,-88.8 1879.72,-84.8 1765.28,-84.8 1765.28,-48.8 1906.72,-48.8 1906.72,-84.8"/>
<text text-anchor="middle" x="1836" y="-62.6" font-family="Times,serif" font-size="14.00">MatFormFieldModule</text>
</g>
<!-- MatFormFieldModule&#45;&gt;AppModule -->
<g id="edge14" class="edge">
<title>MatFormFieldModule&#45;&gt;AppModule</title>
<path fill="none" stroke="black" d="M1836,-85.04C1836,-100.37 1836,-119.8 1836,-119.8 1836,-119.8 2053.26,-119.8 2053.26,-119.8"/>
<polygon fill="black" stroke="black" points="2053.26,-123.3 2063.26,-119.8 2053.26,-116.3 2053.26,-123.3"/>
</g>
<!-- FormsModule -->
<g id="node16" class="node">
<title>FormsModule</title>
<polygon fill="#8dd3c7" stroke="black" points="1747.84,-84.8 1744.84,-88.8 1723.84,-88.8 1720.84,-84.8 1652.16,-84.8 1652.16,-48.8 1747.84,-48.8 1747.84,-84.8"/>
<text text-anchor="middle" x="1700" y="-62.6" font-family="Times,serif" font-size="14.00">FormsModule</text>
</g>
<!-- FormsModule&#45;&gt;AppModule -->
<g id="edge15" class="edge">
<title>FormsModule&#45;&gt;AppModule</title>
<path fill="none" stroke="black" d="M1700,-84.83C1700,-101.2 1700,-122.8 1700,-122.8 1700,-122.8 2053.18,-122.8 2053.18,-122.8"/>
<polygon fill="black" stroke="black" points="2053.18,-126.3 2063.18,-122.8 2053.18,-119.3 2053.18,-126.3"/>
</g>
<!-- ReactiveFormsModule -->
<g id="node17" class="node">
<title>ReactiveFormsModule</title>
<polygon fill="#8dd3c7" stroke="black" points="1634.31,-84.8 1631.31,-88.8 1610.31,-88.8 1607.31,-84.8 1489.69,-84.8 1489.69,-48.8 1634.31,-48.8 1634.31,-84.8"/>
<text text-anchor="middle" x="1562" y="-62.6" font-family="Times,serif" font-size="14.00">ReactiveFormsModule</text>
</g>
<!-- ReactiveFormsModule&#45;&gt;AppModule -->
<g id="edge16" class="edge">
<title>ReactiveFormsModule&#45;&gt;AppModule</title>
<path fill="none" stroke="black" d="M1562,-84.82C1562,-102.17 1562,-125.8 1562,-125.8 1562,-125.8 2053.29,-125.8 2053.29,-125.8"/>
<polygon fill="black" stroke="black" points="2053.29,-129.3 2063.29,-125.8 2053.29,-122.3 2053.29,-129.3"/>
</g>
<!-- MatButtonModule -->
<g id="node18" class="node">
<title>MatButtonModule</title>
<polygon fill="#8dd3c7" stroke="black" points="1472.22,-84.8 1469.22,-88.8 1448.22,-88.8 1445.22,-84.8 1351.78,-84.8 1351.78,-48.8 1472.22,-48.8 1472.22,-84.8"/>
<text text-anchor="middle" x="1412" y="-62.6" font-family="Times,serif" font-size="14.00">MatButtonModule</text>
</g>
<!-- MatButtonModule&#45;&gt;AppModule -->
<g id="edge17" class="edge">
<title>MatButtonModule&#45;&gt;AppModule</title>
<path fill="none" stroke="black" d="M1412,-85.07C1412,-103.36 1412,-128.8 1412,-128.8 1412,-128.8 2053.21,-128.8 2053.21,-128.8"/>
<polygon fill="black" stroke="black" points="2053.21,-132.3 2063.21,-128.8 2053.21,-125.3 2053.21,-132.3"/>
</g>
<!-- MatInputModule -->
<g id="node19" class="node">
<title>MatInputModule</title>
<polygon fill="#8dd3c7" stroke="black" points="1333.66,-84.8 1330.66,-88.8 1309.66,-88.8 1306.66,-84.8 1222.34,-84.8 1222.34,-48.8 1333.66,-48.8 1333.66,-84.8"/>
<text text-anchor="middle" x="1278" y="-62.6" font-family="Times,serif" font-size="14.00">MatInputModule</text>
</g>
<!-- MatInputModule&#45;&gt;AppModule -->
<g id="edge18" class="edge">
<title>MatInputModule&#45;&gt;AppModule</title>
<path fill="none" stroke="black" d="M1278,-84.91C1278,-104.14 1278,-131.8 1278,-131.8 1278,-131.8 2053.14,-131.8 2053.14,-131.8"/>
<polygon fill="black" stroke="black" points="2053.14,-135.3 2063.14,-131.8 2053.14,-128.3 2053.14,-135.3"/>
</g>
<!-- MatChipsModule -->
<g id="node20" class="node">
<title>MatChipsModule</title>
<polygon fill="#8dd3c7" stroke="black" points="1204.28,-84.8 1201.28,-88.8 1180.28,-88.8 1177.28,-84.8 1089.72,-84.8 1089.72,-48.8 1204.28,-48.8 1204.28,-84.8"/>
<text text-anchor="middle" x="1147" y="-62.6" font-family="Times,serif" font-size="14.00">MatChipsModule</text>
</g>
<!-- MatChipsModule&#45;&gt;AppModule -->
<g id="edge19" class="edge">
<title>MatChipsModule&#45;&gt;AppModule</title>
<path fill="none" stroke="black" d="M1147,-85.02C1147,-105.17 1147,-134.8 1147,-134.8 1147,-134.8 2053.22,-134.8 2053.22,-134.8"/>
<polygon fill="black" stroke="black" points="2053.22,-138.3 2063.22,-134.8 2053.22,-131.3 2053.22,-138.3"/>
</g>
<!-- MatDialogModule -->
<g id="node21" class="node">
<title>MatDialogModule</title>
<polygon fill="#8dd3c7" stroke="black" points="1072.21,-84.8 1069.21,-88.8 1048.21,-88.8 1045.21,-84.8 951.79,-84.8 951.79,-48.8 1072.21,-48.8 1072.21,-84.8"/>
<text text-anchor="middle" x="1012" y="-62.6" font-family="Times,serif" font-size="14.00">MatDialogModule</text>
</g>
<!-- MatDialogModule&#45;&gt;AppModule -->
<g id="edge20" class="edge">
<title>MatDialogModule&#45;&gt;AppModule</title>
<path fill="none" stroke="black" d="M1012,-85.08C1012,-106.12 1012,-137.8 1012,-137.8 1012,-137.8 2053.16,-137.8 2053.16,-137.8"/>
<polygon fill="black" stroke="black" points="2053.16,-141.3 2063.16,-137.8 2053.16,-134.3 2053.16,-141.3"/>
</g>
<!-- MatSelectModule -->
<g id="node22" class="node">
<title>MatSelectModule</title>
<polygon fill="#8dd3c7" stroke="black" points="934.31,-84.8 931.31,-88.8 910.31,-88.8 907.31,-84.8 817.69,-84.8 817.69,-48.8 934.31,-48.8 934.31,-84.8"/>
<text text-anchor="middle" x="876" y="-62.6" font-family="Times,serif" font-size="14.00">MatSelectModule</text>
</g>
<!-- MatSelectModule&#45;&gt;AppModule -->
<g id="edge21" class="edge">
<title>MatSelectModule&#45;&gt;AppModule</title>
<path fill="none" stroke="black" d="M876,-85.09C876,-107.01 876,-140.8 876,-140.8 876,-140.8 2053.05,-140.8 2053.05,-140.8"/>
<polygon fill="black" stroke="black" points="2053.05,-144.3 2063.05,-140.8 2053.05,-137.3 2053.05,-144.3"/>
</g>
<!-- HttpClient -->
<g id="node24" class="node">
<title>HttpClient</title>
<ellipse fill="#fdb462" stroke="black" cx="742" cy="-66.8" rx="51.62" ry="18"/>
<text text-anchor="middle" x="742" y="-62.6" font-family="Times,serif" font-size="14.00">HttpClient</text>
</g>
<!-- HttpClient&#45;&gt;AppModule -->
<g id="edge23" class="edge">
<title>HttpClient&#45;&gt;AppModule</title>
<path fill="none" stroke="black" d="M742,-85.05C742,-107.82 742,-143.8 742,-143.8 742,-143.8 2053.09,-143.8 2053.09,-143.8"/>
<polygon fill="black" stroke="black" points="2053.09,-147.3 2063.09,-143.8 2053.09,-140.3 2053.09,-147.3"/>
</g>
<!-- { provide: HTTP_INTERCEPTORS, useClass: AuthInterceptorService, multi: &#160;} -->
<g id="node25" class="node">
<title>{ provide: HTTP_INTERCEPTORS, useClass: AuthInterceptorService, multi: &#160;}</title>
<ellipse fill="#fdb462" stroke="black" cx="348" cy="-66.8" rx="324.39" ry="18"/>
<text text-anchor="middle" x="348" y="-62.6" font-family="Times,serif" font-size="14.00">{ provide: HTTP_INTERCEPTORS, useClass: AuthInterceptorService, multi: &#160;}</text>
</g>
<!-- { provide: HTTP_INTERCEPTORS, useClass: AuthInterceptorService, multi: &#160;}&#45;&gt;AppModule -->
<g id="edge24" class="edge">
<title>{ provide: HTTP_INTERCEPTORS, useClass: AuthInterceptorService, multi: &#160;}&#45;&gt;AppModule</title>
<path fill="none" stroke="black" d="M348,-84.95C348,-108.56 348,-146.8 348,-146.8 348,-146.8 2053.3,-146.8 2053.3,-146.8"/>
<polygon fill="black" stroke="black" points="2053.3,-150.3 2063.3,-146.8 2053.3,-143.3 2053.3,-150.3"/>
</g>
</g>
</svg>
